<svg xmlns="http://www.w3.org/2000/svg" viewBox="0 0 64 64">
  <!-- Sun -->
  <circle cx="32" cy="16" r="8" fill="#f59e0b" opacity="0.9"/>
  <!-- Sun rays -->
  <line x1="32" y1="4" x2="32" y2="7" stroke="#f59e0b" stroke-width="2" stroke-linecap="round" opacity="0.7"/>
  <line x1="40.5" y1="7.5" x2="38.5" y2="10" stroke="#f59e0b" stroke-width="2" stroke-linecap="round" opacity="0.7"/>
  <line x1="44" y1="16" x2="41" y2="16" stroke="#f59e0b" stroke-width="2" stroke-linecap="round" opacity="0.7"/>
  <line x1="23.5" y1="7.5" x2="25.5" y2="10" stroke="#f59e0b" stroke-width="2" stroke-linecap="round" opacity="0.7"/>
  <line x1="20" y1="16" x2="23" y2="16" stroke="#f59e0b" stroke-width="2" stroke-linecap="round" opacity="0.7"/>
  <!-- Ocean waves -->
  <path d="M4,38 Q12,32 20,38 Q28,44 36,38 Q44,32 52,38 Q56,41 60,38" fill="none" stroke="#00afd7" stroke-width="2.5" stroke-linecap="round"/>
  <path d="M4,46 Q12,40 20,46 Q28,52 36,46 Q44,40 52,46 Q56,49 60,46" fill="none" stroke="#0891b2" stroke-width="2" stroke-linecap="round" opacity="0.6"/>
  <!-- Kite in the sky -->
  <polygon points="48,8 54,16 48,24 42,16" fill="#00afd7" stroke="#0e7490" stroke-width="1" stroke-linejoin="round" opacity="0.8"/>
  <!-- Kite string -->
  <path d="M48,24 Q40,34 32,42" stroke="#0e7490" stroke-width="0.8" fill="none" stroke-dasharray="2,2"/>
  <!-- Wind lines -->
  <line x1="4" y1="28" x2="14" y2="28" stroke="#00afd7" stroke-width="1.5" stroke-linecap="round" opacity="0.5"/>
  <line x1="8" y1="32" x2="16" y2="32" stroke="#00afd7" stroke-width="1.5" stroke-linecap="round" opacity="0.4"/>
</svg>
